<svg width="210" height="36" viewBox="0 0 210 36" fill="none" xmlns="http://www.w3.org/2000/svg">
<path d="M0 33.1H30V3.1H0V33.1Z" fill="white"/>
<path d="M56.856 22.592H49.872L48.672 26H45.816L51.792 9.296H54.96L60.936 26H58.056L56.856 22.592ZM56.088 20.36L53.376 12.608L50.64 20.36H56.088ZM66.2704 14.696C66.6704 14.024 67.1984 13.504 67.8544 13.136C68.5264 12.752 69.3184 12.56 70.2304 12.56V15.392H69.5344C68.4624 15.392 67.6464 15.664 67.0864 16.208C66.5424 16.752 66.2704 17.696 66.2704 19.04V26H63.5344V12.776H66.2704V14.696ZM71.8333 19.376C71.8333 18.016 72.1053 16.824 72.6493 15.8C73.2093 14.76 73.9773 13.96 74.9533 13.4C75.9293 12.84 77.0493 12.56 78.3133 12.56C79.9133 12.56 81.2333 12.944 82.2733 13.712C83.3293 14.464 84.0413 15.544 84.4093 16.952H81.4573C81.2173 16.296 80.8333 15.784 80.3053 15.416C79.7773 15.048 79.1133 14.864 78.3133 14.864C77.1933 14.864 76.2973 15.264 75.6253 16.064C74.9693 16.848 74.6413 17.952 74.6413 19.376C74.6413 20.8 74.9693 21.912 75.6253 22.712C76.2973 23.512 77.1933 23.912 78.3133 23.912C79.8973 23.912 80.9453 23.216 81.4573 21.824H84.4093C84.0253 23.168 83.3053 24.24 82.2493 25.04C81.1933 25.824 79.8813 26.216 78.3133 26.216C77.0493 26.216 75.9293 25.936 74.9533 25.376C73.9773 24.8 73.2093 24 72.6493 22.976C72.1053 21.936 71.8333 20.736 71.8333 19.376ZM93.9759 12.56C94.9839 12.56 95.8799 12.776 96.6639 13.208C97.4639 13.64 98.0879 14.28 98.5359 15.128C98.9999 15.976 99.2319 17 99.2319 18.2V26H96.5199V18.608C96.5199 17.424 96.2239 16.52 95.6319 15.896C95.0399 15.256 94.2319 14.936 93.2079 14.936C92.1839 14.936 91.3679 15.256 90.7599 15.896C90.1679 16.52 89.8719 17.424 89.8719 18.608V26H87.1359V8.24H89.8719V14.312C90.3359 13.752 90.9199 13.32 91.6239 13.016C92.3439 12.712 93.1279 12.56 93.9759 12.56ZM104.114 11.024C103.618 11.024 103.202 10.856 102.866 10.52C102.53 10.184 102.362 9.768 102.362 9.272C102.362 8.776 102.53 8.36 102.866 8.024C103.202 7.688 103.618 7.52 104.114 7.52C104.594 7.52 105.002 7.688 105.338 8.024C105.674 8.36 105.842 8.776 105.842 9.272C105.842 9.768 105.674 10.184 105.338 10.52C105.002 10.856 104.594 11.024 104.114 11.024ZM105.458 12.776V26H102.722V12.776H105.458ZM112.242 15.008V22.328C112.242 22.824 112.354 23.184 112.578 23.408C112.818 23.616 113.218 23.72 113.778 23.72H115.458V26H113.298C112.066 26 111.122 25.712 110.466 25.136C109.81 24.56 109.482 23.624 109.482 22.328V15.008H107.922V12.776H109.482V9.488H112.242V12.776H115.458V15.008H112.242ZM130.1 19.064C130.1 19.56 130.068 20.008 130.004 20.408H119.9C119.98 21.464 120.372 22.312 121.076 22.952C121.78 23.592 122.644 23.912 123.668 23.912C125.14 23.912 126.18 23.296 126.788 22.064H129.74C129.34 23.28 128.612 24.28 127.556 25.064C126.516 25.832 125.22 26.216 123.668 26.216C122.404 26.216 121.268 25.936 120.26 25.376C119.268 24.8 118.484 24 117.908 22.976C117.348 21.936 117.068 20.736 117.068 19.376C117.068 18.016 117.34 16.824 117.884 15.8C118.444 14.76 119.22 13.96 120.212 13.4C121.22 12.84 122.372 12.56 123.668 12.56C124.916 12.56 126.028 12.832 127.004 13.376C127.98 13.92 128.74 14.688 129.284 15.68C129.828 16.656 130.1 17.784 130.1 19.064ZM127.244 18.2C127.228 17.192 126.868 16.384 126.164 15.776C125.46 15.168 124.588 14.864 123.548 14.864C122.604 14.864 121.796 15.168 121.124 15.776C120.452 16.368 120.052 17.176 119.924 18.2H127.244ZM131.88 19.376C131.88 18.016 132.152 16.824 132.696 15.8C133.256 14.76 134.024 13.96 135 13.4C135.976 12.84 137.096 12.56 138.36 12.56C139.96 12.56 141.28 12.944 142.32 13.712C143.376 14.464 144.088 15.544 144.456 16.952H141.504C141.264 16.296 140.88 15.784 140.352 15.416C139.824 15.048 139.16 14.864 138.36 14.864C137.24 14.864 136.344 15.264 135.672 16.064C135.016 16.848 134.688 17.952 134.688 19.376C134.688 20.8 135.016 21.912 135.672 22.712C136.344 23.512 137.24 23.912 138.36 23.912C139.944 23.912 140.992 23.216 141.504 21.824H144.456C144.072 23.168 143.352 24.24 142.296 25.04C141.24 25.824 139.928 26.216 138.36 26.216C137.096 26.216 135.976 25.936 135 25.376C134.024 24.8 133.256 24 132.696 22.976C132.152 21.936 131.88 20.736 131.88 19.376ZM150.375 15.008V22.328C150.375 22.824 150.487 23.184 150.711 23.408C150.951 23.616 151.351 23.72 151.911 23.72H153.591V26H151.431C150.199 26 149.255 25.712 148.599 25.136C147.943 24.56 147.615 23.624 147.615 22.328V15.008H146.055V12.776H147.615V9.488H150.375V12.776H153.591V15.008H150.375ZM160.913 26.216C159.873 26.216 158.937 26.032 158.105 25.664C157.289 25.28 156.641 24.768 156.161 24.128C155.681 23.472 155.425 22.744 155.393 21.944H158.225C158.273 22.504 158.537 22.976 159.017 23.36C159.513 23.728 160.129 23.912 160.865 23.912C161.633 23.912 162.225 23.768 162.641 23.48C163.073 23.176 163.289 22.792 163.289 22.328C163.289 21.832 163.049 21.464 162.569 21.224C162.105 20.984 161.361 20.72 160.337 20.432C159.345 20.16 158.537 19.896 157.913 19.64C157.289 19.384 156.745 18.992 156.281 18.464C155.833 17.936 155.609 17.24 155.609 16.376C155.609 15.672 155.817 15.032 156.233 14.456C156.649 13.864 157.241 13.4 158.009 13.064C158.793 12.728 159.689 12.56 160.697 12.56C162.201 12.56 163.409 12.944 164.321 13.712C165.249 14.464 165.745 15.496 165.809 16.808H163.073C163.025 16.216 162.785 15.744 162.353 15.392C161.921 15.04 161.337 14.864 160.601 14.864C159.881 14.864 159.329 15 158.945 15.272C158.561 15.544 158.369 15.904 158.369 16.352C158.369 16.704 158.497 17 158.753 17.24C159.009 17.48 159.321 17.672 159.689 17.816C160.057 17.944 160.601 18.112 161.321 18.32C162.281 18.576 163.065 18.84 163.673 19.112C164.297 19.368 164.833 19.752 165.281 20.264C165.729 20.776 165.961 21.456 165.977 22.304C165.977 23.056 165.769 23.728 165.353 24.32C164.937 24.912 164.345 25.376 163.577 25.712C162.825 26.048 161.937 26.216 160.913 26.216Z" fill="white"/>
</svg>
