<svg width="210" height="36" viewBox="0 0 210 36" fill="none" xmlns="http://www.w3.org/2000/svg">
<path d="M0 33.1H30V3.1H0V33.1Z" fill="white"/>
<path d="M49.536 11.528V16.424H55.296V18.656H49.536V23.768H56.016V26H46.8V9.296H56.016V11.528H49.536ZM69.5379 16.16V18.464H59.6739V16.16H69.5379ZM72.513 19.376C72.513 18.016 72.785 16.824 73.329 15.8C73.889 14.76 74.657 13.96 75.633 13.4C76.609 12.84 77.729 12.56 78.993 12.56C80.593 12.56 81.913 12.944 82.953 13.712C84.009 14.464 84.721 15.544 85.089 16.952H82.137C81.897 16.296 81.513 15.784 80.985 15.416C80.457 15.048 79.793 14.864 78.993 14.864C77.873 14.864 76.977 15.264 76.305 16.064C75.649 16.848 75.321 17.952 75.321 19.376C75.321 20.8 75.649 21.912 76.305 22.712C76.977 23.512 77.873 23.912 78.993 23.912C80.577 23.912 81.625 23.216 82.137 21.824H85.089C84.705 23.168 83.985 24.24 82.929 25.04C81.873 25.824 80.561 26.216 78.993 26.216C77.729 26.216 76.609 25.936 75.633 25.376C74.657 24.8 73.889 24 73.329 22.976C72.785 21.936 72.513 20.736 72.513 19.376ZM93.5516 26.216C92.3036 26.216 91.1756 25.936 90.1676 25.376C89.1596 24.8 88.3676 24 87.7916 22.976C87.2156 21.936 86.9276 20.736 86.9276 19.376C86.9276 18.032 87.2236 16.84 87.8156 15.8C88.4076 14.76 89.2156 13.96 90.2396 13.4C91.2636 12.84 92.4076 12.56 93.6716 12.56C94.9356 12.56 96.0796 12.84 97.1036 13.4C98.1276 13.96 98.9356 14.76 99.5276 15.8C100.12 16.84 100.416 18.032 100.416 19.376C100.416 20.72 100.112 21.912 99.5036 22.952C98.8956 23.992 98.0636 24.8 97.0076 25.376C95.9676 25.936 94.8156 26.216 93.5516 26.216ZM93.5516 23.84C94.2556 23.84 94.9116 23.672 95.5196 23.336C96.1436 23 96.6476 22.496 97.0316 21.824C97.4156 21.152 97.6076 20.336 97.6076 19.376C97.6076 18.416 97.4236 17.608 97.0556 16.952C96.6876 16.28 96.1996 15.776 95.5916 15.44C94.9836 15.104 94.3276 14.936 93.6236 14.936C92.9196 14.936 92.2636 15.104 91.6556 15.44C91.0636 15.776 90.5916 16.28 90.2396 16.952C89.8876 17.608 89.7116 18.416 89.7116 19.376C89.7116 20.8 90.0716 21.904 90.7916 22.688C91.5276 23.456 92.4476 23.84 93.5516 23.84ZM119.128 12.56C120.168 12.56 121.096 12.776 121.912 13.208C122.744 13.64 123.392 14.28 123.856 15.128C124.336 15.976 124.576 17 124.576 18.2V26H121.864V18.608C121.864 17.424 121.568 16.52 120.976 15.896C120.384 15.256 119.576 14.936 118.552 14.936C117.528 14.936 116.712 15.256 116.104 15.896C115.512 16.52 115.216 17.424 115.216 18.608V26H112.504V18.608C112.504 17.424 112.208 16.52 111.616 15.896C111.024 15.256 110.216 14.936 109.192 14.936C108.168 14.936 107.352 15.256 106.744 15.896C106.152 16.52 105.856 17.424 105.856 18.608V26H103.12V12.776H105.856V14.288C106.304 13.744 106.872 13.32 107.56 13.016C108.248 12.712 108.984 12.56 109.768 12.56C110.824 12.56 111.768 12.784 112.6 13.232C113.432 13.68 114.072 14.328 114.52 15.176C114.92 14.376 115.544 13.744 116.392 13.28C117.24 12.8 118.152 12.56 119.128 12.56ZM144.066 12.56C145.106 12.56 146.034 12.776 146.85 13.208C147.682 13.64 148.33 14.28 148.794 15.128C149.274 15.976 149.514 17 149.514 18.2V26H146.802V18.608C146.802 17.424 146.506 16.52 145.914 15.896C145.322 15.256 144.514 14.936 143.49 14.936C142.466 14.936 141.65 15.256 141.042 15.896C140.45 16.52 140.154 17.424 140.154 18.608V26H137.442V18.608C137.442 17.424 137.146 16.52 136.554 15.896C135.962 15.256 135.154 14.936 134.13 14.936C133.106 14.936 132.29 15.256 131.682 15.896C131.09 16.52 130.794 17.424 130.794 18.608V26H128.058V12.776H130.794V14.288C131.242 13.744 131.81 13.32 132.498 13.016C133.186 12.712 133.922 12.56 134.706 12.56C135.762 12.56 136.706 12.784 137.538 13.232C138.37 13.68 139.01 14.328 139.458 15.176C139.858 14.376 140.482 13.744 141.33 13.28C142.178 12.8 143.09 12.56 144.066 12.56ZM165.115 19.064C165.115 19.56 165.083 20.008 165.019 20.408H154.915C154.995 21.464 155.387 22.312 156.091 22.952C156.795 23.592 157.659 23.912 158.683 23.912C160.155 23.912 161.195 23.296 161.803 22.064H164.755C164.355 23.28 163.627 24.28 162.571 25.064C161.531 25.832 160.235 26.216 158.683 26.216C157.419 26.216 156.283 25.936 155.275 25.376C154.283 24.8 153.499 24 152.923 22.976C152.363 21.936 152.083 20.736 152.083 19.376C152.083 18.016 152.355 16.824 152.899 15.8C153.459 14.76 154.235 13.96 155.227 13.4C156.235 12.84 157.387 12.56 158.683 12.56C159.931 12.56 161.043 12.832 162.019 13.376C162.995 13.92 163.755 14.688 164.299 15.68C164.843 16.656 165.115 17.784 165.115 19.064ZM162.259 18.2C162.243 17.192 161.883 16.384 161.179 15.776C160.475 15.168 159.603 14.864 158.563 14.864C157.619 14.864 156.811 15.168 156.139 15.776C155.467 16.368 155.067 17.176 154.939 18.2H162.259ZM170.544 14.696C170.944 14.024 171.472 13.504 172.128 13.136C172.8 12.752 173.592 12.56 174.504 12.56V15.392H173.808C172.736 15.392 171.92 15.664 171.36 16.208C170.816 16.752 170.544 17.696 170.544 19.04V26H167.808V12.776H170.544V14.696ZM176.107 19.376C176.107 18.016 176.379 16.824 176.923 15.8C177.483 14.76 178.251 13.96 179.227 13.4C180.203 12.84 181.323 12.56 182.587 12.56C184.187 12.56 185.507 12.944 186.547 13.712C187.603 14.464 188.315 15.544 188.683 16.952H185.731C185.491 16.296 185.107 15.784 184.579 15.416C184.051 15.048 183.387 14.864 182.587 14.864C181.467 14.864 180.571 15.264 179.899 16.064C179.243 16.848 178.915 17.952 178.915 19.376C178.915 20.8 179.243 21.912 179.899 22.712C180.571 23.512 181.467 23.912 182.587 23.912C184.171 23.912 185.219 23.216 185.731 21.824H188.683C188.299 23.168 187.579 24.24 186.523 25.04C185.467 25.824 184.155 26.216 182.587 26.216C181.323 26.216 180.203 25.936 179.227 25.376C178.251 24.8 177.483 24 176.923 22.976C176.379 21.936 176.107 20.736 176.107 19.376ZM203.529 19.064C203.529 19.56 203.497 20.008 203.433 20.408H193.329C193.409 21.464 193.801 22.312 194.505 22.952C195.209 23.592 196.073 23.912 197.097 23.912C198.569 23.912 199.609 23.296 200.217 22.064H203.169C202.769 23.28 202.041 24.28 200.985 25.064C199.945 25.832 198.649 26.216 197.097 26.216C195.833 26.216 194.697 25.936 193.689 25.376C192.697 24.8 191.913 24 191.337 22.976C190.777 21.936 190.497 20.736 190.497 19.376C190.497 18.016 190.769 16.824 191.313 15.8C191.873 14.76 192.649 13.96 193.641 13.4C194.649 12.84 195.801 12.56 197.097 12.56C198.345 12.56 199.457 12.832 200.433 13.376C201.409 13.92 202.169 14.688 202.713 15.68C203.257 16.656 203.529 17.784 203.529 19.064ZM200.673 18.2C200.657 17.192 200.297 16.384 199.593 15.776C198.889 15.168 198.017 14.864 196.977 14.864C196.033 14.864 195.225 15.168 194.553 15.776C193.881 16.368 193.481 17.176 193.353 18.2H200.673Z" fill="white"/>
</svg>
