<svg width="210" height="36" viewBox="0 0 210 36" fill="none" xmlns="http://www.w3.org/2000/svg">
<path d="M0 31.1H30V1.1H0V31.1Z" fill="white"/>
<path d="M49.536 11.528V16.424H55.296V18.656H49.536V23.768H56.016V26H46.8V9.296H56.016V11.528H49.536ZM58.4739 19.328C58.4739 18 58.7459 16.824 59.2899 15.8C59.8499 14.776 60.6019 13.984 61.5459 13.424C62.5059 12.848 63.5699 12.56 64.7379 12.56C65.6019 12.56 66.4499 12.752 67.2819 13.136C68.1299 13.504 68.8019 14 69.2979 14.624V8.24H72.0579V26H69.2979V24.008C68.8499 24.648 68.2259 25.176 67.4259 25.592C66.6419 26.008 65.7379 26.216 64.7139 26.216C63.5619 26.216 62.5059 25.928 61.5459 25.352C60.6019 24.76 59.8499 23.944 59.2899 22.904C58.7459 21.848 58.4739 20.656 58.4739 19.328ZM69.2979 19.376C69.2979 18.464 69.1059 17.672 68.7219 17C68.3539 16.328 67.8659 15.816 67.2579 15.464C66.6499 15.112 65.9939 14.936 65.2899 14.936C64.5859 14.936 63.9299 15.112 63.3219 15.464C62.7139 15.8 62.2179 16.304 61.8339 16.976C61.4659 17.632 61.2819 18.416 61.2819 19.328C61.2819 20.24 61.4659 21.04 61.8339 21.728C62.2179 22.416 62.7139 22.944 63.3219 23.312C63.9459 23.664 64.6019 23.84 65.2899 23.84C65.9939 23.84 66.6499 23.664 67.2579 23.312C67.8659 22.96 68.3539 22.448 68.7219 21.776C69.1059 21.088 69.2979 20.288 69.2979 19.376ZM87.6276 12.776V26H84.8916V24.44C84.4596 24.984 83.8916 25.416 83.1876 25.736C82.4996 26.04 81.7636 26.192 80.9796 26.192C79.9396 26.192 79.0036 25.976 78.1716 25.544C77.3556 25.112 76.7076 24.472 76.2276 23.624C75.7636 22.776 75.5316 21.752 75.5316 20.552V12.776H78.2436V20.144C78.2436 21.328 78.5396 22.24 79.1316 22.88C79.7236 23.504 80.5316 23.816 81.5556 23.816C82.5796 23.816 83.3876 23.504 83.9796 22.88C84.5876 22.24 84.8916 21.328 84.8916 20.144V12.776H87.6276ZM90.3255 19.376C90.3255 18.016 90.5975 16.824 91.1415 15.8C91.7015 14.76 92.4695 13.96 93.4455 13.4C94.4215 12.84 95.5415 12.56 96.8055 12.56C98.4055 12.56 99.7255 12.944 100.766 13.712C101.822 14.464 102.534 15.544 102.902 16.952H99.9495C99.7095 16.296 99.3255 15.784 98.7975 15.416C98.2695 15.048 97.6055 14.864 96.8055 14.864C95.6855 14.864 94.7895 15.264 94.1175 16.064C93.4615 16.848 93.1335 17.952 93.1335 19.376C93.1335 20.8 93.4615 21.912 94.1175 22.712C94.7895 23.512 95.6855 23.912 96.8055 23.912C98.3895 23.912 99.4375 23.216 99.9495 21.824H102.902C102.518 23.168 101.798 24.24 100.742 25.04C99.6855 25.824 98.3735 26.216 96.8055 26.216C95.5415 26.216 94.4215 25.936 93.4455 25.376C92.4695 24.8 91.7015 24 91.1415 22.976C90.5975 21.936 90.3255 20.736 90.3255 19.376ZM104.716 19.328C104.716 18 104.988 16.824 105.532 15.8C106.092 14.776 106.844 13.984 107.788 13.424C108.748 12.848 109.804 12.56 110.956 12.56C111.996 12.56 112.9 12.768 113.668 13.184C114.452 13.584 115.076 14.088 115.54 14.696V12.776H118.3V26H115.54V24.032C115.076 24.656 114.444 25.176 113.644 25.592C112.844 26.008 111.932 26.216 110.908 26.216C109.772 26.216 108.732 25.928 107.788 25.352C106.844 24.76 106.092 23.944 105.532 22.904C104.988 21.848 104.716 20.656 104.716 19.328ZM115.54 19.376C115.54 18.464 115.348 17.672 114.964 17C114.596 16.328 114.108 15.816 113.5 15.464C112.892 15.112 112.236 14.936 111.532 14.936C110.828 14.936 110.172 15.112 109.564 15.464C108.956 15.8 108.46 16.304 108.076 16.976C107.708 17.632 107.524 18.416 107.524 19.328C107.524 20.24 107.708 21.04 108.076 21.728C108.46 22.416 108.956 22.944 109.564 23.312C110.188 23.664 110.844 23.84 111.532 23.84C112.236 23.84 112.892 23.664 113.5 23.312C114.108 22.96 114.596 22.448 114.964 21.776C115.348 21.088 115.54 20.288 115.54 19.376ZM125.086 15.008V22.328C125.086 22.824 125.198 23.184 125.422 23.408C125.662 23.616 126.062 23.72 126.622 23.72H128.302V26H126.142C124.91 26 123.966 25.712 123.31 25.136C122.654 24.56 122.326 23.624 122.326 22.328V15.008H120.766V12.776H122.326V9.488H125.086V12.776H128.302V15.008H125.086ZM132.215 11.024C131.719 11.024 131.303 10.856 130.967 10.52C130.631 10.184 130.463 9.768 130.463 9.272C130.463 8.776 130.631 8.36 130.967 8.024C131.303 7.688 131.719 7.52 132.215 7.52C132.695 7.52 133.103 7.688 133.439 8.024C133.775 8.36 133.943 8.776 133.943 9.272C133.943 9.768 133.775 10.184 133.439 10.52C133.103 10.856 132.695 11.024 132.215 11.024ZM133.559 12.776V26H130.823V12.776H133.559ZM142.888 26.216C141.64 26.216 140.512 25.936 139.504 25.376C138.496 24.8 137.704 24 137.128 22.976C136.552 21.936 136.264 20.736 136.264 19.376C136.264 18.032 136.56 16.84 137.152 15.8C137.744 14.76 138.552 13.96 139.576 13.4C140.6 12.84 141.744 12.56 143.008 12.56C144.272 12.56 145.416 12.84 146.44 13.4C147.464 13.96 148.272 14.76 148.864 15.8C149.456 16.84 149.752 18.032 149.752 19.376C149.752 20.72 149.448 21.912 148.84 22.952C148.232 23.992 147.4 24.8 146.344 25.376C145.304 25.936 144.152 26.216 142.888 26.216ZM142.888 23.84C143.592 23.84 144.248 23.672 144.856 23.336C145.48 23 145.984 22.496 146.368 21.824C146.752 21.152 146.944 20.336 146.944 19.376C146.944 18.416 146.76 17.608 146.392 16.952C146.024 16.28 145.536 15.776 144.928 15.44C144.32 15.104 143.664 14.936 142.96 14.936C142.256 14.936 141.6 15.104 140.992 15.44C140.4 15.776 139.928 16.28 139.576 16.952C139.224 17.608 139.048 18.416 139.048 19.376C139.048 20.8 139.408 21.904 140.128 22.688C140.864 23.456 141.784 23.84 142.888 23.84ZM159.128 12.56C160.168 12.56 161.096 12.776 161.912 13.208C162.744 13.64 163.392 14.28 163.856 15.128C164.32 15.976 164.552 17 164.552 18.2V26H161.84V18.608C161.84 17.424 161.544 16.52 160.952 15.896C160.36 15.256 159.552 14.936 158.528 14.936C157.504 14.936 156.688 15.256 156.08 15.896C155.488 16.52 155.192 17.424 155.192 18.608V26H152.456V12.776H155.192V14.288C155.64 13.744 156.208 13.32 156.896 13.016C157.6 12.712 158.344 12.56 159.128 12.56Z" fill="white"/>
</svg>
