<svg width="210" height="36" viewBox="0 0 210 36" fill="none" xmlns="http://www.w3.org/2000/svg">
<path d="M0 33.1H30V3.1H0V33.1Z" fill="white"/>
<path d="M58.872 14.12C58.44 13.288 57.84 12.664 57.072 12.248C56.304 11.816 55.416 11.6 54.408 11.6C53.304 11.6 52.32 11.848 51.456 12.344C50.592 12.84 49.912 13.544 49.416 14.456C48.936 15.368 48.696 16.424 48.696 17.624C48.696 18.824 48.936 19.888 49.416 20.816C49.912 21.728 50.592 22.432 51.456 22.928C52.32 23.424 53.304 23.672 54.408 23.672C55.896 23.672 57.104 23.256 58.032 22.424C58.96 21.592 59.528 20.464 59.736 19.04H53.472V16.856H62.664V18.992C62.488 20.288 62.024 21.48 61.272 22.568C60.536 23.656 59.568 24.528 58.368 25.184C57.184 25.824 55.864 26.144 54.408 26.144C52.84 26.144 51.408 25.784 50.112 25.064C48.816 24.328 47.784 23.312 47.016 22.016C46.264 20.72 45.888 19.256 45.888 17.624C45.888 15.992 46.264 14.528 47.016 13.232C47.784 11.936 48.816 10.928 50.112 10.208C51.424 9.472 52.856 9.104 54.408 9.104C56.184 9.104 57.76 9.544 59.136 10.424C60.528 11.288 61.536 12.52 62.16 14.12H58.872ZM71.0985 26.216C69.8505 26.216 68.7225 25.936 67.7145 25.376C66.7065 24.8 65.9145 24 65.3385 22.976C64.7625 21.936 64.4745 20.736 64.4745 19.376C64.4745 18.032 64.7705 16.84 65.3625 15.8C65.9545 14.76 66.7625 13.96 67.7865 13.4C68.8105 12.84 69.9545 12.56 71.2185 12.56C72.4825 12.56 73.6265 12.84 74.6505 13.4C75.6745 13.96 76.4825 14.76 77.0745 15.8C77.6665 16.84 77.9625 18.032 77.9625 19.376C77.9625 20.72 77.6585 21.912 77.0505 22.952C76.4425 23.992 75.6105 24.8 74.5545 25.376C73.5145 25.936 72.3625 26.216 71.0985 26.216ZM71.0985 23.84C71.8025 23.84 72.4585 23.672 73.0665 23.336C73.6905 23 74.1945 22.496 74.5785 21.824C74.9625 21.152 75.1545 20.336 75.1545 19.376C75.1545 18.416 74.9705 17.608 74.6025 16.952C74.2345 16.28 73.7465 15.776 73.1385 15.44C72.5305 15.104 71.8745 14.936 71.1705 14.936C70.4665 14.936 69.8105 15.104 69.2025 15.44C68.6105 15.776 68.1385 16.28 67.7865 16.952C67.4345 17.608 67.2585 18.416 67.2585 19.376C67.2585 20.8 67.6185 21.904 68.3385 22.688C69.0745 23.456 69.9945 23.84 71.0985 23.84ZM85.7792 23.552L89.5232 12.776H92.4272L87.3872 26H84.1232L79.1072 12.776H82.0352L85.7792 23.552ZM106.615 19.064C106.615 19.56 106.583 20.008 106.519 20.408H96.4153C96.4953 21.464 96.8873 22.312 97.5913 22.952C98.2953 23.592 99.1593 23.912 100.183 23.912C101.655 23.912 102.695 23.296 103.303 22.064H106.255C105.855 23.28 105.127 24.28 104.071 25.064C103.031 25.832 101.735 26.216 100.183 26.216C98.9193 26.216 97.7833 25.936 96.7753 25.376C95.7833 24.8 94.9993 24 94.4233 22.976C93.8633 21.936 93.5833 20.736 93.5833 19.376C93.5833 18.016 93.8553 16.824 94.3993 15.8C94.9593 14.76 95.7353 13.96 96.7273 13.4C97.7353 12.84 98.8873 12.56 100.183 12.56C101.431 12.56 102.543 12.832 103.519 13.376C104.495 13.92 105.255 14.688 105.799 15.68C106.343 16.656 106.615 17.784 106.615 19.064ZM103.759 18.2C103.743 17.192 103.383 16.384 102.679 15.776C101.975 15.168 101.103 14.864 100.063 14.864C99.1193 14.864 98.3113 15.168 97.6393 15.776C96.9673 16.368 96.5673 17.176 96.4393 18.2H103.759ZM112.044 14.696C112.444 14.024 112.972 13.504 113.628 13.136C114.3 12.752 115.092 12.56 116.004 12.56V15.392H115.308C114.236 15.392 113.42 15.664 112.86 16.208C112.316 16.752 112.044 17.696 112.044 19.04V26H109.308V12.776H112.044V14.696ZM125.191 12.56C126.231 12.56 127.159 12.776 127.975 13.208C128.807 13.64 129.455 14.28 129.919 15.128C130.383 15.976 130.615 17 130.615 18.2V26H127.903V18.608C127.903 17.424 127.607 16.52 127.015 15.896C126.423 15.256 125.615 14.936 124.591 14.936C123.567 14.936 122.751 15.256 122.143 15.896C121.551 16.52 121.255 17.424 121.255 18.608V26H118.519V12.776H121.255V14.288C121.703 13.744 122.271 13.32 122.959 13.016C123.663 12.712 124.407 12.56 125.191 12.56ZM150.113 12.56C151.153 12.56 152.081 12.776 152.897 13.208C153.729 13.64 154.377 14.28 154.841 15.128C155.321 15.976 155.561 17 155.561 18.2V26H152.849V18.608C152.849 17.424 152.553 16.52 151.961 15.896C151.369 15.256 150.561 14.936 149.537 14.936C148.513 14.936 147.697 15.256 147.089 15.896C146.497 16.52 146.201 17.424 146.201 18.608V26H143.489V18.608C143.489 17.424 143.193 16.52 142.601 15.896C142.009 15.256 141.201 14.936 140.177 14.936C139.153 14.936 138.337 15.256 137.729 15.896C137.137 16.52 136.841 17.424 136.841 18.608V26H134.105V12.776H136.841V14.288C137.289 13.744 137.857 13.32 138.545 13.016C139.233 12.712 139.969 12.56 140.753 12.56C141.809 12.56 142.753 12.784 143.585 13.232C144.417 13.68 145.057 14.328 145.505 15.176C145.905 14.376 146.529 13.744 147.377 13.28C148.225 12.8 149.137 12.56 150.113 12.56ZM171.162 19.064C171.162 19.56 171.13 20.008 171.066 20.408H160.962C161.042 21.464 161.434 22.312 162.138 22.952C162.842 23.592 163.706 23.912 164.73 23.912C166.202 23.912 167.242 23.296 167.85 22.064H170.802C170.402 23.28 169.674 24.28 168.618 25.064C167.578 25.832 166.282 26.216 164.73 26.216C163.466 26.216 162.33 25.936 161.322 25.376C160.33 24.8 159.546 24 158.97 22.976C158.41 21.936 158.13 20.736 158.13 19.376C158.13 18.016 158.402 16.824 158.946 15.8C159.506 14.76 160.282 13.96 161.274 13.4C162.282 12.84 163.434 12.56 164.73 12.56C165.978 12.56 167.09 12.832 168.066 13.376C169.042 13.92 169.802 14.688 170.346 15.68C170.89 16.656 171.162 17.784 171.162 19.064ZM168.306 18.2C168.29 17.192 167.93 16.384 167.226 15.776C166.522 15.168 165.65 14.864 164.61 14.864C163.666 14.864 162.858 15.168 162.186 15.776C161.514 16.368 161.114 17.176 160.986 18.2H168.306ZM180.527 12.56C181.567 12.56 182.495 12.776 183.311 13.208C184.143 13.64 184.791 14.28 185.255 15.128C185.719 15.976 185.951 17 185.951 18.2V26H183.239V18.608C183.239 17.424 182.943 16.52 182.351 15.896C181.759 15.256 180.951 14.936 179.927 14.936C178.903 14.936 178.087 15.256 177.479 15.896C176.887 16.52 176.591 17.424 176.591 18.608V26H173.855V12.776H176.591V14.288C177.039 13.744 177.607 13.32 178.295 13.016C178.999 12.712 179.743 12.56 180.527 12.56ZM192.633 15.008V22.328C192.633 22.824 192.745 23.184 192.969 23.408C193.209 23.616 193.609 23.72 194.169 23.72H195.849V26H193.689C192.457 26 191.513 25.712 190.857 25.136C190.201 24.56 189.873 23.624 189.873 22.328V15.008H188.313V12.776H189.873V9.488H192.633V12.776H195.849V15.008H192.633ZM203.17 26.216C202.13 26.216 201.194 26.032 200.362 25.664C199.546 25.28 198.898 24.768 198.418 24.128C197.938 23.472 197.682 22.744 197.65 21.944H200.482C200.53 22.504 200.794 22.976 201.274 23.36C201.77 23.728 202.386 23.912 203.122 23.912C203.89 23.912 204.482 23.768 204.898 23.48C205.33 23.176 205.546 22.792 205.546 22.328C205.546 21.832 205.306 21.464 204.826 21.224C204.362 20.984 203.618 20.72 202.594 20.432C201.602 20.16 200.794 19.896 200.17 19.64C199.546 19.384 199.002 18.992 198.538 18.464C198.09 17.936 197.866 17.24 197.866 16.376C197.866 15.672 198.074 15.032 198.49 14.456C198.906 13.864 199.498 13.4 200.266 13.064C201.05 12.728 201.946 12.56 202.954 12.56C204.458 12.56 205.666 12.944 206.578 13.712C207.506 14.464 208.002 15.496 208.066 16.808H205.33C205.282 16.216 205.042 15.744 204.61 15.392C204.178 15.04 203.594 14.864 202.858 14.864C202.138 14.864 201.586 15 201.202 15.272C200.818 15.544 200.626 15.904 200.626 16.352C200.626 16.704 200.754 17 201.01 17.24C201.266 17.48 201.578 17.672 201.946 17.816C202.314 17.944 202.858 18.112 203.578 18.32C204.538 18.576 205.322 18.84 205.93 19.112C206.554 19.368 207.09 19.752 207.538 20.264C207.986 20.776 208.218 21.456 208.234 22.304C208.234 23.056 208.026 23.728 207.61 24.32C207.194 24.912 206.602 25.376 205.834 25.712C205.082 26.048 204.194 26.216 203.17 26.216Z" fill="white"/>
</svg>
