<svg width="210" height="36" viewBox="0 0 210 36" fill="none" xmlns="http://www.w3.org/2000/svg">
<path d="M0 33.1H30V3.1H0V33.1Z" fill="white"/>
<path d="M60.12 9.32V26H57.384V18.704H49.536V26H46.8V9.32H49.536V16.472H57.384V9.32H60.12ZM69.4579 26.216C68.2099 26.216 67.0819 25.936 66.0739 25.376C65.0659 24.8 64.2739 24 63.6979 22.976C63.1219 21.936 62.8339 20.736 62.8339 19.376C62.8339 18.032 63.1299 16.84 63.7219 15.8C64.3139 14.76 65.1219 13.96 66.1459 13.4C67.1699 12.84 68.3139 12.56 69.5779 12.56C70.8419 12.56 71.9859 12.84 73.0099 13.4C74.0339 13.96 74.8419 14.76 75.4339 15.8C76.0259 16.84 76.3219 18.032 76.3219 19.376C76.3219 20.72 76.0179 21.912 75.4099 22.952C74.8019 23.992 73.9699 24.8 72.9139 25.376C71.8739 25.936 70.7219 26.216 69.4579 26.216ZM69.4579 23.84C70.1619 23.84 70.8179 23.672 71.4259 23.336C72.0499 23 72.5539 22.496 72.9379 21.824C73.3219 21.152 73.5139 20.336 73.5139 19.376C73.5139 18.416 73.3299 17.608 72.9619 16.952C72.5939 16.28 72.1059 15.776 71.4979 15.44C70.8899 15.104 70.2339 14.936 69.5299 14.936C68.8259 14.936 68.1699 15.104 67.5619 15.44C66.9699 15.776 66.4979 16.28 66.1459 16.952C65.7939 17.608 65.6179 18.416 65.6179 19.376C65.6179 20.8 65.9779 21.904 66.6979 22.688C67.4339 23.456 68.3539 23.84 69.4579 23.84ZM82.2186 15.008V22.328C82.2186 22.824 82.3306 23.184 82.5546 23.408C82.7946 23.616 83.1946 23.72 83.7546 23.72H85.4346V26H83.2746C82.0426 26 81.0986 25.712 80.4426 25.136C79.7866 24.56 79.4586 23.624 79.4586 22.328V15.008H77.8986V12.776H79.4586V9.488H82.2186V12.776H85.4346V15.008H82.2186ZM100.076 19.064C100.076 19.56 100.044 20.008 99.9803 20.408H89.8763C89.9563 21.464 90.3483 22.312 91.0523 22.952C91.7563 23.592 92.6203 23.912 93.6443 23.912C95.1163 23.912 96.1563 23.296 96.7643 22.064H99.7162C99.3163 23.28 98.5883 24.28 97.5323 25.064C96.4923 25.832 95.1963 26.216 93.6443 26.216C92.3803 26.216 91.2443 25.936 90.2363 25.376C89.2443 24.8 88.4603 24 87.8843 22.976C87.3243 21.936 87.0443 20.736 87.0443 19.376C87.0443 18.016 87.3163 16.824 87.8603 15.8C88.4203 14.76 89.1963 13.96 90.1883 13.4C91.1963 12.84 92.3483 12.56 93.6443 12.56C94.8923 12.56 96.0043 12.832 96.9803 13.376C97.9563 13.92 98.7163 14.688 99.2603 15.68C99.8043 16.656 100.076 17.784 100.076 19.064ZM97.2203 18.2C97.2043 17.192 96.8443 16.384 96.1403 15.776C95.4363 15.168 94.5643 14.864 93.5243 14.864C92.5803 14.864 91.7723 15.168 91.1003 15.776C90.4283 16.368 90.0283 17.176 89.9003 18.2H97.2203ZM105.505 8.24V26H102.769V8.24H105.505ZM113.897 26.216C112.857 26.216 111.921 26.032 111.089 25.664C110.273 25.28 109.625 24.768 109.145 24.128C108.665 23.472 108.409 22.744 108.377 21.944H111.209C111.257 22.504 111.521 22.976 112.001 23.36C112.497 23.728 113.113 23.912 113.849 23.912C114.617 23.912 115.209 23.768 115.625 23.48C116.057 23.176 116.273 22.792 116.273 22.328C116.273 21.832 116.033 21.464 115.553 21.224C115.089 20.984 114.345 20.72 113.321 20.432C112.329 20.16 111.521 19.896 110.897 19.64C110.273 19.384 109.729 18.992 109.265 18.464C108.817 17.936 108.593 17.24 108.593 16.376C108.593 15.672 108.801 15.032 109.217 14.456C109.633 13.864 110.225 13.4 110.993 13.064C111.777 12.728 112.673 12.56 113.681 12.56C115.185 12.56 116.393 12.944 117.305 13.712C118.233 14.464 118.729 15.496 118.793 16.808H116.057C116.009 16.216 115.769 15.744 115.337 15.392C114.905 15.04 114.321 14.864 113.585 14.864C112.865 14.864 112.313 15 111.929 15.272C111.545 15.544 111.353 15.904 111.353 16.352C111.353 16.704 111.481 17 111.737 17.24C111.993 17.48 112.305 17.672 112.673 17.816C113.041 17.944 113.585 18.112 114.305 18.32C115.265 18.576 116.049 18.84 116.657 19.112C117.281 19.368 117.817 19.752 118.265 20.264C118.713 20.776 118.945 21.456 118.961 22.304C118.961 23.056 118.753 23.728 118.337 24.32C117.921 24.912 117.329 25.376 116.561 25.712C115.809 26.048 114.921 26.216 113.897 26.216Z" fill="white"/>
</svg>
