<svg width="210" height="36" viewBox="0 0 210 36" fill="none" xmlns="http://www.w3.org/2000/svg">
<path d="M0 33.1H30V3.1H0V33.1Z" fill="white"/>
<path d="M55.464 26L51.624 19.328H49.536V26H46.8V9.32H52.56C53.84 9.32 54.92 9.544 55.8 9.992C56.696 10.44 57.36 11.04 57.792 11.792C58.24 12.544 58.464 13.384 58.464 14.312C58.464 15.4 58.144 16.392 57.504 17.288C56.88 18.168 55.912 18.768 54.6 19.088L58.728 26H55.464ZM49.536 17.144H52.56C53.584 17.144 54.352 16.888 54.864 16.376C55.392 15.864 55.656 15.176 55.656 14.312C55.656 13.448 55.4 12.776 54.888 12.296C54.376 11.8 53.6 11.552 52.56 11.552H49.536V17.144ZM74.0841 19.064C74.0841 19.56 74.0521 20.008 73.9881 20.408H63.8841C63.9641 21.464 64.3561 22.312 65.0601 22.952C65.7641 23.592 66.6281 23.912 67.6521 23.912C69.1241 23.912 70.1641 23.296 70.7721 22.064H73.7241C73.3241 23.28 72.5961 24.28 71.5401 25.064C70.5001 25.832 69.2041 26.216 67.6521 26.216C66.3881 26.216 65.2521 25.936 64.2441 25.376C63.2521 24.8 62.4681 24 61.8921 22.976C61.3321 21.936 61.0521 20.736 61.0521 19.376C61.0521 18.016 61.3241 16.824 61.8681 15.8C62.4281 14.76 63.2041 13.96 64.1961 13.4C65.2041 12.84 66.3561 12.56 67.6521 12.56C68.9001 12.56 70.0121 12.832 70.9881 13.376C71.9641 13.92 72.7241 14.688 73.2681 15.68C73.8121 16.656 74.0841 17.784 74.0841 19.064ZM71.2281 18.2C71.2121 17.192 70.8521 16.384 70.1481 15.776C69.4441 15.168 68.5721 14.864 67.5321 14.864C66.5881 14.864 65.7801 15.168 65.1081 15.776C64.4361 16.368 64.0361 17.176 63.9081 18.2H71.2281ZM75.8646 19.328C75.8646 18 76.1366 16.824 76.6806 15.8C77.2406 14.776 77.9926 13.984 78.9366 13.424C79.8966 12.848 80.9526 12.56 82.1046 12.56C83.1446 12.56 84.0486 12.768 84.8166 13.184C85.6006 13.584 86.2246 14.088 86.6886 14.696V12.776H89.4486V26H86.6886V24.032C86.2246 24.656 85.5926 25.176 84.7926 25.592C83.9926 26.008 83.0806 26.216 82.0566 26.216C80.9206 26.216 79.8806 25.928 78.9366 25.352C77.9926 24.76 77.2406 23.944 76.6806 22.904C76.1366 21.848 75.8646 20.656 75.8646 19.328ZM86.6886 19.376C86.6886 18.464 86.4966 17.672 86.1126 17C85.7446 16.328 85.2566 15.816 84.6486 15.464C84.0406 15.112 83.3846 14.936 82.6806 14.936C81.9766 14.936 81.3206 15.112 80.7126 15.464C80.1046 15.8 79.6086 16.304 79.2246 16.976C78.8566 17.632 78.6726 18.416 78.6726 19.328C78.6726 20.24 78.8566 21.04 79.2246 21.728C79.6086 22.416 80.1046 22.944 80.7126 23.312C81.3366 23.664 81.9926 23.84 82.6806 23.84C83.3846 23.84 84.0406 23.664 84.6486 23.312C85.2566 22.96 85.7446 22.448 86.1126 21.776C86.4966 21.088 86.6886 20.288 86.6886 19.376ZM95.7782 8.24V26H93.0422V8.24H95.7782ZM108.341 11.528V16.424H114.101V18.656H108.341V23.768H114.821V26H105.605V9.296H114.821V11.528H108.341ZM122.991 26.216C121.951 26.216 121.015 26.032 120.183 25.664C119.367 25.28 118.719 24.768 118.239 24.128C117.759 23.472 117.503 22.744 117.471 21.944H120.303C120.351 22.504 120.615 22.976 121.095 23.36C121.591 23.728 122.207 23.912 122.943 23.912C123.711 23.912 124.303 23.768 124.719 23.48C125.151 23.176 125.367 22.792 125.367 22.328C125.367 21.832 125.127 21.464 124.647 21.224C124.183 20.984 123.439 20.72 122.415 20.432C121.423 20.16 120.615 19.896 119.991 19.64C119.367 19.384 118.823 18.992 118.359 18.464C117.911 17.936 117.687 17.24 117.687 16.376C117.687 15.672 117.895 15.032 118.311 14.456C118.727 13.864 119.319 13.4 120.087 13.064C120.871 12.728 121.767 12.56 122.775 12.56C124.279 12.56 125.487 12.944 126.399 13.712C127.327 14.464 127.823 15.496 127.887 16.808H125.151C125.103 16.216 124.863 15.744 124.431 15.392C123.999 15.04 123.415 14.864 122.679 14.864C121.959 14.864 121.407 15 121.023 15.272C120.639 15.544 120.447 15.904 120.447 16.352C120.447 16.704 120.575 17 120.831 17.24C121.087 17.48 121.399 17.672 121.767 17.816C122.135 17.944 122.679 18.112 123.399 18.32C124.359 18.576 125.143 18.84 125.751 19.112C126.375 19.368 126.911 19.752 127.359 20.264C127.807 20.776 128.039 21.456 128.055 22.304C128.055 23.056 127.847 23.728 127.431 24.32C127.015 24.912 126.423 25.376 125.655 25.712C124.903 26.048 124.015 26.216 122.991 26.216ZM134.203 15.008V22.328C134.203 22.824 134.315 23.184 134.539 23.408C134.779 23.616 135.179 23.72 135.739 23.72H137.419V26H135.259C134.027 26 133.083 25.712 132.427 25.136C131.771 24.56 131.443 23.624 131.443 22.328V15.008H129.883V12.776H131.443V9.488H134.203V12.776H137.419V15.008H134.203ZM139.029 19.328C139.029 18 139.301 16.824 139.845 15.8C140.405 14.776 141.157 13.984 142.101 13.424C143.061 12.848 144.117 12.56 145.269 12.56C146.309 12.56 147.213 12.768 147.981 13.184C148.765 13.584 149.389 14.088 149.853 14.696V12.776H152.613V26H149.853V24.032C149.389 24.656 148.757 25.176 147.957 25.592C147.157 26.008 146.245 26.216 145.221 26.216C144.085 26.216 143.045 25.928 142.101 25.352C141.157 24.76 140.405 23.944 139.845 22.904C139.301 21.848 139.029 20.656 139.029 19.328ZM149.853 19.376C149.853 18.464 149.661 17.672 149.277 17C148.909 16.328 148.421 15.816 147.813 15.464C147.205 15.112 146.549 14.936 145.845 14.936C145.141 14.936 144.485 15.112 143.877 15.464C143.269 15.8 142.773 16.304 142.389 16.976C142.021 17.632 141.837 18.416 141.837 19.328C141.837 20.24 142.021 21.04 142.389 21.728C142.773 22.416 143.269 22.944 143.877 23.312C144.501 23.664 145.157 23.84 145.845 23.84C146.549 23.84 147.205 23.664 147.813 23.312C148.421 22.96 148.909 22.448 149.277 21.776C149.661 21.088 149.853 20.288 149.853 19.376ZM159.398 15.008V22.328C159.398 22.824 159.51 23.184 159.734 23.408C159.974 23.616 160.374 23.72 160.934 23.72H162.614V26H160.454C159.222 26 158.278 25.712 157.622 25.136C156.966 24.56 156.638 23.624 156.638 22.328V15.008H155.078V12.776H156.638V9.488H159.398V12.776H162.614V15.008H159.398ZM177.256 19.064C177.256 19.56 177.224 20.008 177.16 20.408H167.056C167.136 21.464 167.528 22.312 168.232 22.952C168.936 23.592 169.8 23.912 170.824 23.912C172.296 23.912 173.336 23.296 173.944 22.064H176.896C176.496 23.28 175.768 24.28 174.712 25.064C173.672 25.832 172.376 26.216 170.824 26.216C169.56 26.216 168.424 25.936 167.416 25.376C166.424 24.8 165.64 24 165.064 22.976C164.504 21.936 164.224 20.736 164.224 19.376C164.224 18.016 164.496 16.824 165.04 15.8C165.6 14.76 166.376 13.96 167.368 13.4C168.376 12.84 169.528 12.56 170.824 12.56C172.072 12.56 173.184 12.832 174.16 13.376C175.136 13.92 175.896 14.688 176.44 15.68C176.984 16.656 177.256 17.784 177.256 19.064ZM174.4 18.2C174.384 17.192 174.024 16.384 173.32 15.776C172.616 15.168 171.744 14.864 170.704 14.864C169.76 14.864 168.952 15.168 168.28 15.776C167.608 16.368 167.208 17.176 167.08 18.2H174.4Z" fill="white"/>
</svg>
