<svg width="210" height="36" viewBox="0 0 210 36" fill="none" xmlns="http://www.w3.org/2000/svg">
<path d="M0 33.1H30V3.1H0V33.1Z" fill="white"/>
<path d="M55.464 26L51.624 19.328H49.536V26H46.8V9.32H52.56C53.84 9.32 54.92 9.544 55.8 9.992C56.696 10.44 57.36 11.04 57.792 11.792C58.24 12.544 58.464 13.384 58.464 14.312C58.464 15.4 58.144 16.392 57.504 17.288C56.88 18.168 55.912 18.768 54.6 19.088L58.728 26H55.464ZM49.536 17.144H52.56C53.584 17.144 54.352 16.888 54.864 16.376C55.392 15.864 55.656 15.176 55.656 14.312C55.656 13.448 55.4 12.776 54.888 12.296C54.376 11.8 53.6 11.552 52.56 11.552H49.536V17.144ZM74.0841 19.064C74.0841 19.56 74.0521 20.008 73.9881 20.408H63.8841C63.9641 21.464 64.3561 22.312 65.0601 22.952C65.7641 23.592 66.6281 23.912 67.6521 23.912C69.1241 23.912 70.1641 23.296 70.7721 22.064H73.7241C73.3241 23.28 72.5961 24.28 71.5401 25.064C70.5001 25.832 69.2041 26.216 67.6521 26.216C66.3881 26.216 65.2521 25.936 64.2441 25.376C63.2521 24.8 62.4681 24 61.8921 22.976C61.3321 21.936 61.0521 20.736 61.0521 19.376C61.0521 18.016 61.3241 16.824 61.8681 15.8C62.4281 14.76 63.2041 13.96 64.1961 13.4C65.2041 12.84 66.3561 12.56 67.6521 12.56C68.9001 12.56 70.0121 12.832 70.9881 13.376C71.9641 13.92 72.7241 14.688 73.2681 15.68C73.8121 16.656 74.0841 17.784 74.0841 19.064ZM71.2281 18.2C71.2121 17.192 70.8521 16.384 70.1481 15.776C69.4441 15.168 68.5721 14.864 67.5321 14.864C66.5881 14.864 65.7801 15.168 65.1081 15.776C64.4361 16.368 64.0361 17.176 63.9081 18.2H71.2281ZM81.5766 26.216C80.5366 26.216 79.6006 26.032 78.7686 25.664C77.9526 25.28 77.3046 24.768 76.8246 24.128C76.3446 23.472 76.0886 22.744 76.0566 21.944H78.8886C78.9366 22.504 79.2006 22.976 79.6806 23.36C80.1766 23.728 80.7926 23.912 81.5286 23.912C82.2966 23.912 82.8886 23.768 83.3046 23.48C83.7366 23.176 83.9526 22.792 83.9526 22.328C83.9526 21.832 83.7126 21.464 83.2326 21.224C82.7686 20.984 82.0246 20.72 81.0006 20.432C80.0086 20.16 79.2006 19.896 78.5766 19.64C77.9526 19.384 77.4086 18.992 76.9446 18.464C76.4966 17.936 76.2726 17.24 76.2726 16.376C76.2726 15.672 76.4806 15.032 76.8966 14.456C77.3126 13.864 77.9046 13.4 78.6726 13.064C79.4566 12.728 80.3526 12.56 81.3606 12.56C82.8646 12.56 84.0726 12.944 84.9846 13.712C85.9126 14.464 86.4086 15.496 86.4726 16.808H83.7366C83.6886 16.216 83.4486 15.744 83.0166 15.392C82.5846 15.04 82.0006 14.864 81.2646 14.864C80.5446 14.864 79.9926 15 79.6086 15.272C79.2246 15.544 79.0326 15.904 79.0326 16.352C79.0326 16.704 79.1606 17 79.4166 17.24C79.6726 17.48 79.9846 17.672 80.3526 17.816C80.7206 17.944 81.2646 18.112 81.9846 18.32C82.9446 18.576 83.7286 18.84 84.3366 19.112C84.9606 19.368 85.4966 19.752 85.9446 20.264C86.3926 20.776 86.6246 21.456 86.6406 22.304C86.6406 23.056 86.4326 23.728 86.0166 24.32C85.6006 24.912 85.0086 25.376 84.2406 25.712C83.4886 26.048 82.6006 26.216 81.5766 26.216ZM92.7889 15.008V22.328C92.7889 22.824 92.9009 23.184 93.1249 23.408C93.3649 23.616 93.7649 23.72 94.3249 23.72H96.0049V26H93.8449C92.6129 26 91.6689 25.712 91.0129 25.136C90.3569 24.56 90.0289 23.624 90.0289 22.328V15.008H88.4689V12.776H90.0289V9.488H92.7889V12.776H96.0049V15.008H92.7889ZM97.6146 19.328C97.6146 18 97.8866 16.824 98.4306 15.8C98.9906 14.776 99.7426 13.984 100.687 13.424C101.647 12.848 102.703 12.56 103.855 12.56C104.895 12.56 105.799 12.768 106.567 13.184C107.351 13.584 107.975 14.088 108.439 14.696V12.776H111.199V26H108.439V24.032C107.975 24.656 107.343 25.176 106.543 25.592C105.743 26.008 104.831 26.216 103.807 26.216C102.671 26.216 101.631 25.928 100.687 25.352C99.7426 24.76 98.9906 23.944 98.4306 22.904C97.8866 21.848 97.6146 20.656 97.6146 19.328ZM108.439 19.376C108.439 18.464 108.247 17.672 107.863 17C107.495 16.328 107.007 15.816 106.399 15.464C105.791 15.112 105.135 14.936 104.431 14.936C103.727 14.936 103.071 15.112 102.463 15.464C101.855 15.8 101.359 16.304 100.975 16.976C100.607 17.632 100.423 18.416 100.423 19.328C100.423 20.24 100.607 21.04 100.975 21.728C101.359 22.416 101.855 22.944 102.463 23.312C103.087 23.664 103.743 23.84 104.431 23.84C105.135 23.84 105.791 23.664 106.399 23.312C107.007 22.96 107.495 22.448 107.863 21.776C108.247 21.088 108.439 20.288 108.439 19.376ZM126.768 12.776V26H124.032V24.44C123.6 24.984 123.032 25.416 122.328 25.736C121.64 26.04 120.904 26.192 120.12 26.192C119.08 26.192 118.144 25.976 117.312 25.544C116.496 25.112 115.848 24.472 115.368 23.624C114.904 22.776 114.672 21.752 114.672 20.552V12.776H117.384V20.144C117.384 21.328 117.68 22.24 118.272 22.88C118.864 23.504 119.672 23.816 120.696 23.816C121.72 23.816 122.528 23.504 123.12 22.88C123.728 22.24 124.032 21.328 124.032 20.144V12.776H126.768ZM133.114 14.696C133.514 14.024 134.042 13.504 134.698 13.136C135.37 12.752 136.162 12.56 137.074 12.56V15.392H136.378C135.306 15.392 134.49 15.664 133.93 16.208C133.386 16.752 133.114 17.696 133.114 19.04V26H130.378V12.776H133.114V14.696ZM138.677 19.328C138.677 18 138.949 16.824 139.493 15.8C140.053 14.776 140.805 13.984 141.749 13.424C142.709 12.848 143.765 12.56 144.917 12.56C145.957 12.56 146.861 12.768 147.629 13.184C148.413 13.584 149.037 14.088 149.501 14.696V12.776H152.261V26H149.501V24.032C149.037 24.656 148.405 25.176 147.605 25.592C146.805 26.008 145.893 26.216 144.869 26.216C143.733 26.216 142.693 25.928 141.749 25.352C140.805 24.76 140.053 23.944 139.493 22.904C138.949 21.848 138.677 20.656 138.677 19.328ZM149.501 19.376C149.501 18.464 149.309 17.672 148.925 17C148.557 16.328 148.069 15.816 147.461 15.464C146.853 15.112 146.197 14.936 145.493 14.936C144.789 14.936 144.133 15.112 143.525 15.464C142.917 15.8 142.421 16.304 142.037 16.976C141.669 17.632 141.485 18.416 141.485 19.328C141.485 20.24 141.669 21.04 142.037 21.728C142.421 22.416 142.917 22.944 143.525 23.312C144.149 23.664 144.805 23.84 145.493 23.84C146.197 23.84 146.853 23.664 147.461 23.312C148.069 22.96 148.557 22.448 148.925 21.776C149.309 21.088 149.501 20.288 149.501 19.376ZM162.527 12.56C163.567 12.56 164.495 12.776 165.311 13.208C166.143 13.64 166.791 14.28 167.255 15.128C167.719 15.976 167.951 17 167.951 18.2V26H165.239V18.608C165.239 17.424 164.943 16.52 164.351 15.896C163.759 15.256 162.951 14.936 161.927 14.936C160.903 14.936 160.087 15.256 159.479 15.896C158.887 16.52 158.591 17.424 158.591 18.608V26H155.855V12.776H158.591V14.288C159.039 13.744 159.607 13.32 160.295 13.016C160.999 12.712 161.743 12.56 162.527 12.56ZM174.633 15.008V22.328C174.633 22.824 174.745 23.184 174.969 23.408C175.209 23.616 175.609 23.72 176.169 23.72H177.849V26H175.689C174.457 26 173.513 25.712 172.857 25.136C172.201 24.56 171.873 23.624 171.873 22.328V15.008H170.313V12.776H171.873V9.488H174.633V12.776H177.849V15.008H174.633ZM185.17 26.216C184.13 26.216 183.194 26.032 182.362 25.664C181.546 25.28 180.898 24.768 180.418 24.128C179.938 23.472 179.682 22.744 179.65 21.944H182.482C182.53 22.504 182.794 22.976 183.274 23.36C183.77 23.728 184.386 23.912 185.122 23.912C185.89 23.912 186.482 23.768 186.898 23.48C187.33 23.176 187.546 22.792 187.546 22.328C187.546 21.832 187.306 21.464 186.826 21.224C186.362 20.984 185.618 20.72 184.594 20.432C183.602 20.16 182.794 19.896 182.17 19.64C181.546 19.384 181.002 18.992 180.538 18.464C180.09 17.936 179.866 17.24 179.866 16.376C179.866 15.672 180.074 15.032 180.49 14.456C180.906 13.864 181.498 13.4 182.266 13.064C183.05 12.728 183.946 12.56 184.954 12.56C186.458 12.56 187.666 12.944 188.578 13.712C189.506 14.464 190.002 15.496 190.066 16.808H187.33C187.282 16.216 187.042 15.744 186.61 15.392C186.178 15.04 185.594 14.864 184.858 14.864C184.138 14.864 183.586 15 183.202 15.272C182.818 15.544 182.626 15.904 182.626 16.352C182.626 16.704 182.754 17 183.01 17.24C183.266 17.48 183.578 17.672 183.946 17.816C184.314 17.944 184.858 18.112 185.578 18.32C186.538 18.576 187.322 18.84 187.93 19.112C188.554 19.368 189.09 19.752 189.538 20.264C189.986 20.776 190.218 21.456 190.234 22.304C190.234 23.056 190.026 23.728 189.61 24.32C189.194 24.912 188.602 25.376 187.834 25.712C187.082 26.048 186.194 26.216 185.17 26.216Z" fill="white"/>
</svg>
