<svg width="210" height="36" viewBox="0 0 210 36" fill="none" xmlns="http://www.w3.org/2000/svg">
<path d="M0 33.1H30V3.1H0V33.1Z" fill="white"/>
<path d="M52.296 26.168C51.176 26.168 50.168 25.976 49.272 25.592C48.376 25.192 47.672 24.632 47.16 23.912C46.648 23.192 46.392 22.352 46.392 21.392H49.32C49.384 22.112 49.664 22.704 50.16 23.168C50.672 23.632 51.384 23.864 52.296 23.864C53.24 23.864 53.976 23.64 54.504 23.192C55.032 22.728 55.296 22.136 55.296 21.416C55.296 20.856 55.128 20.4 54.792 20.048C54.472 19.696 54.064 19.424 53.568 19.232C53.088 19.04 52.416 18.832 51.552 18.608C50.464 18.32 49.576 18.032 48.888 17.744C48.216 17.44 47.64 16.976 47.16 16.352C46.68 15.728 46.44 14.896 46.44 13.856C46.44 12.896 46.68 12.056 47.16 11.336C47.64 10.616 48.312 10.064 49.176 9.68C50.04 9.296 51.04 9.104 52.176 9.104C53.792 9.104 55.112 9.512 56.136 10.328C57.176 11.128 57.752 12.232 57.864 13.64H54.84C54.792 13.032 54.504 12.512 53.976 12.08C53.448 11.648 52.752 11.432 51.888 11.432C51.104 11.432 50.464 11.632 49.968 12.032C49.472 12.432 49.224 13.008 49.224 13.76C49.224 14.272 49.376 14.696 49.68 15.032C50 15.352 50.4 15.608 50.88 15.8C51.36 15.992 52.016 16.2 52.848 16.424C53.952 16.728 54.848 17.032 55.536 17.336C56.24 17.64 56.832 18.112 57.312 18.752C57.808 19.376 58.056 20.216 58.056 21.272C58.056 22.12 57.824 22.92 57.36 23.672C56.912 24.424 56.248 25.032 55.368 25.496C54.504 25.944 53.48 26.168 52.296 26.168ZM64.4764 15.008V22.328C64.4764 22.824 64.5884 23.184 64.8124 23.408C65.0524 23.616 65.4524 23.72 66.0124 23.72H67.6924V26H65.5324C64.3004 26 63.3564 25.712 62.7004 25.136C62.0444 24.56 61.7164 23.624 61.7164 22.328V15.008H60.1564V12.776H61.7164V9.488H64.4764V12.776H67.6924V15.008H64.4764ZM69.3021 19.328C69.3021 18 69.5741 16.824 70.1181 15.8C70.6781 14.776 71.4301 13.984 72.3741 13.424C73.3341 12.848 74.3901 12.56 75.5421 12.56C76.5821 12.56 77.4861 12.768 78.2541 13.184C79.0381 13.584 79.6621 14.088 80.1261 14.696V12.776H82.8861V26H80.1261V24.032C79.6621 24.656 79.0301 25.176 78.2301 25.592C77.4301 26.008 76.5181 26.216 75.4941 26.216C74.3581 26.216 73.3181 25.928 72.3741 25.352C71.4301 24.76 70.6781 23.944 70.1181 22.904C69.5741 21.848 69.3021 20.656 69.3021 19.328ZM80.1261 19.376C80.1261 18.464 79.9341 17.672 79.5501 17C79.1821 16.328 78.6941 15.816 78.0861 15.464C77.4781 15.112 76.8221 14.936 76.1181 14.936C75.4141 14.936 74.7581 15.112 74.1501 15.464C73.5421 15.8 73.0461 16.304 72.6621 16.976C72.2941 17.632 72.1101 18.416 72.1101 19.328C72.1101 20.24 72.2941 21.04 72.6621 21.728C73.0461 22.416 73.5421 22.944 74.1501 23.312C74.7741 23.664 75.4301 23.84 76.1181 23.84C76.8221 23.84 77.4781 23.664 78.0861 23.312C78.6941 22.96 79.1821 22.448 79.5501 21.776C79.9341 21.088 80.1261 20.288 80.1261 19.376ZM89.2157 14.696C89.6157 14.024 90.1437 13.504 90.7997 13.136C91.4717 12.752 92.2637 12.56 93.1757 12.56V15.392H92.4797C91.4077 15.392 90.5917 15.664 90.0317 16.208C89.4877 16.752 89.2157 17.696 89.2157 19.04V26H86.4797V12.776H89.2157V14.696ZM98.8826 15.008V22.328C98.8826 22.824 98.9946 23.184 99.2186 23.408C99.4586 23.616 99.8586 23.72 100.419 23.72H102.099V26H99.9386C98.7066 26 97.7626 25.712 97.1066 25.136C96.4506 24.56 96.1226 23.624 96.1226 22.328V15.008H94.5626V12.776H96.1226V9.488H98.8826V12.776H102.099V15.008H98.8826ZM116.596 12.776V26H113.86V24.44C113.428 24.984 112.86 25.416 112.156 25.736C111.468 26.04 110.732 26.192 109.948 26.192C108.908 26.192 107.972 25.976 107.14 25.544C106.324 25.112 105.676 24.472 105.196 23.624C104.732 22.776 104.5 21.752 104.5 20.552V12.776H107.212V20.144C107.212 21.328 107.508 22.24 108.1 22.88C108.692 23.504 109.5 23.816 110.524 23.816C111.548 23.816 112.356 23.504 112.948 22.88C113.556 22.24 113.86 21.328 113.86 20.144V12.776H116.596ZM122.942 14.72C123.406 14.112 124.038 13.6 124.838 13.184C125.638 12.768 126.542 12.56 127.55 12.56C128.702 12.56 129.75 12.848 130.694 13.424C131.654 13.984 132.406 14.776 132.95 15.8C133.494 16.824 133.766 18 133.766 19.328C133.766 20.656 133.494 21.848 132.95 22.904C132.406 23.944 131.654 24.76 130.694 25.352C129.75 25.928 128.702 26.216 127.55 26.216C126.542 26.216 125.646 26.016 124.862 25.616C124.078 25.2 123.438 24.688 122.942 24.08V32.288H120.206V12.776H122.942V14.72ZM130.982 19.328C130.982 18.416 130.79 17.632 130.406 16.976C130.038 16.304 129.542 15.8 128.918 15.464C128.31 15.112 127.654 14.936 126.95 14.936C126.262 14.936 125.606 15.112 124.982 15.464C124.374 15.816 123.878 16.328 123.494 17C123.126 17.672 122.942 18.464 122.942 19.376C122.942 20.288 123.126 21.088 123.494 21.776C123.878 22.448 124.374 22.96 124.982 23.312C125.606 23.664 126.262 23.84 126.95 23.84C127.654 23.84 128.31 23.664 128.918 23.312C129.542 22.944 130.038 22.416 130.406 21.728C130.79 21.04 130.982 20.24 130.982 19.328ZM141.272 26.216C140.232 26.216 139.296 26.032 138.464 25.664C137.648 25.28 137 24.768 136.52 24.128C136.04 23.472 135.784 22.744 135.752 21.944H138.584C138.632 22.504 138.896 22.976 139.376 23.36C139.872 23.728 140.488 23.912 141.224 23.912C141.992 23.912 142.584 23.768 143 23.48C143.432 23.176 143.648 22.792 143.648 22.328C143.648 21.832 143.408 21.464 142.928 21.224C142.464 20.984 141.72 20.72 140.696 20.432C139.704 20.16 138.896 19.896 138.272 19.64C137.648 19.384 137.104 18.992 136.64 18.464C136.192 17.936 135.968 17.24 135.968 16.376C135.968 15.672 136.176 15.032 136.592 14.456C137.008 13.864 137.6 13.4 138.368 13.064C139.152 12.728 140.048 12.56 141.056 12.56C142.56 12.56 143.768 12.944 144.68 13.712C145.608 14.464 146.104 15.496 146.168 16.808H143.432C143.384 16.216 143.144 15.744 142.712 15.392C142.28 15.04 141.696 14.864 140.96 14.864C140.24 14.864 139.688 15 139.304 15.272C138.92 15.544 138.728 15.904 138.728 16.352C138.728 16.704 138.856 17 139.112 17.24C139.368 17.48 139.68 17.672 140.048 17.816C140.416 17.944 140.96 18.112 141.68 18.32C142.64 18.576 143.424 18.84 144.032 19.112C144.656 19.368 145.192 19.752 145.64 20.264C146.088 20.776 146.32 21.456 146.336 22.304C146.336 23.056 146.128 23.728 145.712 24.32C145.296 24.912 144.704 25.376 143.936 25.712C143.184 26.048 142.296 26.216 141.272 26.216Z" fill="white"/>
</svg>
